<mxfile host="app.diagrams.net" modified="2025-10-19T00:00:00.000Z" agent="Claude" version="21.0.0" type="device">
  <diagram name="Gantt Chart" id="gantt">
    <mxGraphModel dx="1422" dy="794" grid="1" gridSize="10" guides="1" tooltips="1" connect="1" arrows="1" fold="1" page="1" pageScale="1" pageWidth="1600" pageHeight="1200" math="0" shadow="0">
      <root>
        <mxCell id="0"/>
        <mxCell id="1" parent="0"/>
        
        <!-- Title -->
        <mxCell id="title" value="Personal Finance Manager - Project Gantt Chart&#xa;6-Week Development Timeline (ITEC 810)" style="text;html=1;strokeColor=none;fillColor=none;align=center;verticalAlign=middle;whiteSpace=wrap;rounded=0;fontSize=18;fontStyle=1" vertex="1" parent="1">
          <mxGeometry x="400" y="20" width="800" height="60" as="geometry"/>
        </mxCell>

        <!-- Column Headers -->
        <mxCell id="header_task" value="Task / Phase" style="rounded=0;whiteSpace=wrap;html=1;fillColor=#34495e;fontColor=#ffffff;fontStyle=1;fontSize=12;" vertex="1" parent="1">
          <mxGeometry x="40" y="100" width="250" height="40" as="geometry"/>
        </mxCell>
        <mxCell id="header_owner" value="Owner" style="rounded=0;whiteSpace=wrap;html=1;fillColor=#34495e;fontColor=#ffffff;fontStyle=1;fontSize=12;" vertex="1" parent="1">
          <mxGeometry x="290" y="100" width="100" height="40" as="geometry"/>
        </mxCell>
        <mxCell id="header_duration" value="Duration" style="rounded=0;whiteSpace=wrap;html=1;fillColor=#34495e;fontColor=#ffffff;fontStyle=1;fontSize=12;" vertex="1" parent="1">
          <mxGeometry x="390" y="100" width="80" height="40" as="geometry"/>
        </mxCell>
        <mxCell id="header_w1" value="Week 1&#xa;Planning" style="rounded=0;whiteSpace=wrap;html=1;fillColor=#3498db;fontColor=#ffffff;fontStyle=1;fontSize=11;" vertex="1" parent="1">
          <mxGeometry x="470" y="100" width="120" height="40" as="geometry"/>
        </mxCell>
        <mxCell id="header_w2" value="Week 2&#xa;Elaboration" style="rounded=0;whiteSpace=wrap;html=1;fillColor=#3498db;fontColor=#ffffff;fontStyle=1;fontSize=11;" vertex="1" parent="1">
          <mxGeometry x="590" y="100" width="120" height="40" as="geometry"/>
        </mxCell>
        <mxCell id="header_w3" value="Week 3&#xa;Construction 1" style="rounded=0;whiteSpace=wrap;html=1;fillColor=#3498db;fontColor=#ffffff;fontStyle=1;fontSize=11;" vertex="1" parent="1">
          <mxGeometry x="710" y="100" width="120" height="40" as="geometry"/>
        </mxCell>
        <mxCell id="header_w4" value="Week 4&#xa;Construction 2" style="rounded=0;whiteSpace=wrap;html=1;fillColor=#3498db;fontColor=#ffffff;fontStyle=1;fontSize=11;" vertex="1" parent="1">
          <mxGeometry x="830" y="100" width="120" height="40" as="geometry"/>
        </mxCell>
        <mxCell id="header_w5" value="Week 5&#xa;Testing" style="rounded=0;whiteSpace=wrap;html=1;fillColor=#3498db;fontColor=#ffffff;fontStyle=1;fontSize=11;" vertex="1" parent="1">
          <mxGeometry x="950" y="100" width="120" height="40" as="geometry"/>
        </mxCell>
        <mxCell id="header_w6" value="Week 6&#xa;Close-out" style="rounded=0;whiteSpace=wrap;html=1;fillColor=#3498db;fontColor=#ffffff;fontStyle=1;fontSize=11;" vertex="1" parent="1">
          <mxGeometry x="1070" y="100" width="120" height="40" as="geometry"/>
        </mxCell>

        <!-- PHASE 1: PROJECT MANAGEMENT -->
        <mxCell id="phase1" value="1.1 PROJECT MANAGEMENT" style="rounded=0;whiteSpace=wrap;html=1;fillColor=#2c3e50;fontColor=#ffffff;fontStyle=1;fontSize=12;" vertex="1" parent="1">
          <mxGeometry x="40" y="150" width="1150" height="30" as="geometry"/>
        </mxCell>

        <!-- Complete SDP -->
        <mxCell id="task_sdp_name" value="Complete SDP" style="rounded=0;whiteSpace=wrap;html=1;fillColor=#ecf0f1;align=left;fontSize=11;" vertex="1" parent="1">
          <mxGeometry x="40" y="180" width="250" height="30" as="geometry"/>
        </mxCell>
        <mxCell id="task_sdp_owner" value="All Team" style="rounded=0;whiteSpace=wrap;html=1;fillColor=#ffffff;fontSize=10;fontColor=#7f8c8d;" vertex="1" parent="1">
          <mxGeometry x="290" y="180" width="100" height="30" as="geometry"/>
        </mxCell>
        <mxCell id="task_sdp_duration" value="3 days" style="rounded=0;whiteSpace=wrap;html=1;fillColor=#ffffff;fontSize=10;" vertex="1" parent="1">
          <mxGeometry x="390" y="180" width="80" height="30" as="geometry"/>
        </mxCell>
        <mxCell id="task_sdp_bar" value="SDP v1.2" style="rounded=1;whiteSpace=wrap;html=1;fillColor=#9b59b6;fontColor=#ffffff;fontStyle=1;fontSize=10;" vertex="1" parent="1">
          <mxGeometry x="475" y="185" width="110" height="20" as="geometry"/>
        </mxCell>

        <!-- Weekly Status Reports -->
        <mxCell id="task_status_name" value="Weekly Status Reports" style="rounded=0;whiteSpace=wrap;html=1;fillColor=#ecf0f1;align=left;fontSize=11;" vertex="1" parent="1">
          <mxGeometry x="40" y="210" width="250" height="30" as="geometry"/>
        </mxCell>
        <mxCell id="task_status_owner" value="PM" style="rounded=0;whiteSpace=wrap;html=1;fillColor=#ffffff;fontSize=10;fontColor=#7f8c8d;" vertex="1" parent="1">
          <mxGeometry x="290" y="210" width="100" height="30" as="geometry"/>
        </mxCell>
        <mxCell id="task_status_duration" value="Ongoing" style="rounded=0;whiteSpace=wrap;html=1;fillColor=#ffffff;fontSize=10;" vertex="1" parent="1">
          <mxGeometry x="390" y="210" width="80" height="30" as="geometry"/>
        </mxCell>
        <mxCell id="task_status_bar1" value="âœ“" style="rounded=1;whiteSpace=wrap;html=1;fillColor=#9b59b6;fontColor=#ffffff;fontStyle=1;fontSize=10;opacity=60;" vertex="1" parent="1">
          <mxGeometry x="500" y="215" width="60" height="20" as="geometry"/>
        </mxCell>
        <mxCell id="task_status_bar2" value="âœ“" style="rounded=1;whiteSpace=wrap;html=1;fillColor=#9b59b6;fontColor=#ffffff;fontStyle=1;fontSize=10;opacity=60;" vertex="1" parent="1">
          <mxGeometry x="620" y="215" width="60" height="20" as="geometry"/>
        </mxCell>
        <mxCell id="task_status_bar3" value="âœ“" style="rounded=1;whiteSpace=wrap;html=1;fillColor=#9b59b6;fontColor=#ffffff;fontStyle=1;fontSize=10;opacity=60;" vertex="1" parent="1">
          <mxGeometry x="740" y="215" width="60" height="20" as="geometry"/>
        </mxCell>
        <mxCell id="task_status_bar4" value="âœ“" style="rounded=1;whiteSpace=wrap;html=1;fillColor=#9b59b6;fontColor=#ffffff;fontStyle=1;fontSize=10;opacity=60;" vertex="1" parent="1">
          <mxGeometry x="860" y="215" width="60" height="20" as="geometry"/>
        </mxCell>
        <mxCell id="task_status_bar5" value="âœ“" style="rounded=1;whiteSpace=wrap;html=1;fillColor=#9b59b6;fontColor=#ffffff;fontStyle=1;fontSize=10;opacity=60;" vertex="1" parent="1">
          <mxGeometry x="980" y="215" width="60" height="20" as="geometry"/>
        </mxCell>
        <mxCell id="task_status_bar6" value="âœ“" style="rounded=1;whiteSpace=wrap;html=1;fillColor=#9b59b6;fontColor=#ffffff;fontStyle=1;fontSize=10;opacity=60;" vertex="1" parent="1">
          <mxGeometry x="1100" y="215" width="60" height="20" as="geometry"/>
        </mxCell>

        <!-- Milestone: SDP Approved -->
        <mxCell id="milestone1_name" value="ðŸ”¶ Milestone: SDP Approved" style="rounded=0;whiteSpace=wrap;html=1;fillColor=#ecf0f1;align=left;fontSize=11;fontStyle=1;" vertex="1" parent="1">
          <mxGeometry x="40" y="240" width="250" height="30" as="geometry"/>
        </mxCell>
        <mxCell id="milestone1_owner" value="-" style="rounded=0;whiteSpace=wrap;html=1;fillColor=#ffffff;fontSize=10;" vertex="1" parent="1">
          <mxGeometry x="290" y="240" width="100" height="30" as="geometry"/>
        </mxCell>
        <mxCell id="milestone1_duration" value="-" style="rounded=0;whiteSpace=wrap;html=1;fillColor=#ffffff;fontSize=10;" vertex="1" parent="1">
          <mxGeometry x="390" y="240" width="80" height="30" as="geometry"/>
        </mxCell>
        <mxCell id="milestone1_diamond" value="" style="rhombus;whiteSpace=wrap;html=1;fillColor=#f39c12;strokeColor=none;" vertex="1" parent="1">
          <mxGeometry x="515" y="245" width="20" height="20" as="geometry"/>
        </mxCell>

        <!-- PHASE 2: REQUIREMENTS & DESIGN -->
        <mxCell id="phase2" value="1.2 REQUIREMENTS &amp; DESIGN" style="rounded=0;whiteSpace=wrap;html=1;fillColor=#2c3e50;fontColor=#ffffff;fontStyle=1;fontSize=12;" vertex="1" parent="1">
          <mxGeometry x="40" y="280" width="1150" height="30" as="geometry"/>
        </mxCell>

        <!-- Requirements Specification -->
        <mxCell id="task_req_name" value="Requirements Specification" style="rounded=0;whiteSpace=wrap;html=1;fillColor=#ecf0f1;align=left;fontSize=11;" vertex="1" parent="1">
          <mxGeometry x="40" y="310" width="250" height="30" as="geometry"/>
        </mxCell>
        <mxCell id="task_req_owner" value="Brant" style="rounded=0;whiteSpace=wrap;html=1;fillColor=#ffffff;fontSize=10;fontColor=#7f8c8d;" vertex="1" parent="1">
          <mxGeometry x="290" y="310" width="100" height="30" as="geometry"/>
        </mxCell>
        <mxCell id="task_req_duration" value="2 days" style="rounded=0;whiteSpace=wrap;html=1;fillColor=#ffffff;fontSize=10;" vertex="1" parent="1">
          <mxGeometry x="390" y="310" width="80" height="30" as="geometry"/>
        </mxCell>
        <mxCell id="task_req_bar" value="REQ Doc" style="rounded=1;whiteSpace=wrap;html=1;fillColor=#3498db;fontColor=#ffffff;fontStyle=1;fontSize=10;" vertex="1" parent="1">
          <mxGeometry x="595" y="315" width="110" height="20" as="geometry"/>
        </mxCell>

        <!-- UML Class Diagram -->
        <mxCell id="task_uml_name" value="UML Class Diagram" style="rounded=0;whiteSpace=wrap;html=1;fillColor=#ecf0f1;align=left;fontSize=11;" vertex="1" parent="1">
          <mxGeometry x="40" y="340" width="250" height="30" as="geometry"/>
        </mxCell>
        <mxCell id="task_uml_owner" value="Samantha" style="rounded=0;whiteSpace=wrap;html=1;fillColor=#ffffff;fontSize=10;fontColor=#7f8c8d;" vertex="1" parent="1">
          <mxGeometry x="290" y="340" width="100" height="30" as="geometry"/>
        </mxCell>
        <mxCell id="task_uml_duration" value="2 days" style="rounded=0;whiteSpace=wrap;html=1;fillColor=#ffffff;fontSize=10;" vertex="1" parent="1">
          <mxGeometry x="390" y="340" width="80" height="30" as="geometry"/>
        </mxCell>
        <mxCell id="task_uml_bar" value="UML" style="rounded=1;whiteSpace=wrap;html=1;fillColor=#3498db;fontColor=#ffffff;fontStyle=1;fontSize=10;" vertex="1" parent="1">
          <mxGeometry x="595" y="345" width="110" height="20" as="geometry"/>
        </mxCell>

        <!-- UI Mockups -->
        <mxCell id="task_ui_name" value="UI Mockups" style="rounded=0;whiteSpace=wrap;html=1;fillColor=#ecf0f1;align=left;fontSize=11;" vertex="1" parent="1">
          <mxGeometry x="40" y="370" width="250" height="30" as="geometry"/>
        </mxCell>
        <mxCell id="task_ui_owner" value="Chris" style="rounded=0;whiteSpace=wrap;html=1;fillColor=#ffffff;fontSize=10;fontColor=#7f8c8d;" vertex="1" parent="1">
          <mxGeometry x="290" y="370" width="100" height="30" as="geometry"/>
        </mxCell>
        <mxCell id="task_ui_duration" value="2 days" style="rounded=0;whiteSpace=wrap;html=1;fillColor=#ffffff;fontSize=10;" vertex="1" parent="1">
          <mxGeometry x="390" y="370" width="80" height="30" as="geometry"/>
        </mxCell>
        <mxCell id="task_ui_bar" value="UI Design" style="rounded=1;whiteSpace=wrap;html=1;fillColor=#3498db;fontColor=#ffffff;fontStyle=1;fontSize=10;" vertex="1" parent="1">
          <mxGeometry x="595" y="375" width="110" height="20" as="geometry"/>
        </mxCell>

        <!-- Milestone: Design Complete -->
        <mxCell id="milestone2_name" value="ðŸ”¶ Milestone: Design Complete" style="rounded=0;whiteSpace=wrap;html=1;fillColor=#ecf0f1;align=left;fontSize=11;fontStyle=1;" vertex="1" parent="1">
          <mxGeometry x="40" y="400" width="250" height="30" as="geometry"/>
        </mxCell>
        <mxCell id="milestone2_owner" value="-" style="rounded=0;whiteSpace=wrap;html=1;fillColor=#ffffff;fontSize=10;" vertex="1" parent="1">
          <mxGeometry x="290" y="400" width="100" height="30" as="geometry"/>
        </mxCell>
        <mxCell id="milestone2_duration" value="-" style="rounded=0;whiteSpace=wrap;html=1;fillColor=#ffffff;fontSize=10;" vertex="1" parent="1">
          <mxGeometry x="390" y="400" width="80" height="30" as="geometry"/>
        </mxCell>
        <mxCell id="milestone2_diamond" value="" style="rhombus;whiteSpace=wrap;html=1;fillColor=#f39c12;strokeColor=none;" vertex="1" parent="1">
          <mxGeometry x="635" y="405" width="20" height="20" as="geometry"/>
        </mxCell>

        <!-- PHASE 3: CONSTRUCTION 1 -->
        <mxCell id="phase3" value="1.3 DEVELOPMENT - ITERATION 1 (MVP)" style="rounded=0;whiteSpace=wrap;html=1;fillColor=#2c3e50;fontColor=#ffffff;fontStyle=1;fontSize=12;" vertex="1" parent="1">
          <mxGeometry x="40" y="440" width="1150" height="30" as="geometry"/>
        </mxCell>

        <!-- Expense Class -->
        <mxCell id="task_expense_name" value="Expense Class Implementation" style="rounded=0;whiteSpace=wrap;html=1;fillColor=#ecf0f1;align=left;fontSize=11;" vertex="1" parent="1">
          <mxGeometry x="40" y="470" width="250" height="30" as="geometry"/>
        </mxCell>
        <mxCell id="task_expense_owner" value="Ragan" style="rounded=0;whiteSpace=wrap;html=1;fillColor=#ffffff;fontSize=10;fontColor=#7f8c8d;" vertex="1" parent="1">
          <mxGeometry x="290" y="470" width="100" height="30" as="geometry"/>
        </mxCell>
        <mxCell id="task_expense_duration" value="2 days" style="rounded=0;whiteSpace=wrap;html=1;fillColor=#ffffff;fontSize=10;" vertex="1" parent="1">
          <mxGeometry x="390" y="470" width="80" height="30" as="geometry"/>
        </mxCell>
        <mxCell id="task_expense_bar" value="Expense Class" style="rounded=1;whiteSpace=wrap;html=1;fillColor=#e74c3c;fontColor=#ffffff;fontStyle=1;fontSize=10;" vertex="1" parent="1">
          <mxGeometry x="715" y="475" width="110" height="20" as="geometry"/>
        </mxCell>

        <!-- Data Persistence -->
        <mxCell id="task_json_name" value="Data Persistence (JSON)" style="rounded=0;whiteSpace=wrap;html=1;fillColor=#ecf0f1;align=left;fontSize=11;" vertex="1" parent="1">
          <mxGeometry x="40" y="500" width="250" height="30" as="geometry"/>
        </mxCell>
        <mxCell id="task_json_owner" value="Brant" style="rounded=0;whiteSpace=wrap;html=1;fillColor=#ffffff;fontSize=10;fontColor=#7f8c8d;" vertex="1" parent="1">
          <mxGeometry x="290" y="500" width="100" height="30" as="geometry"/>
        </mxCell>
        <mxCell id="task_json_duration" value="2 days" style="rounded=0;whiteSpace=wrap;html=1;fillColor=#ffffff;fontSize=10;" vertex="1" parent="1">
          <mxGeometry x="390" y="500" width="80" height="30" as="geometry"/>
        </mxCell>
        <mxCell id="task_json_bar" value="JSON I/O" style="rounded=1;whiteSpace=wrap;html=1;fillColor=#e74c3c;fontColor=#ffffff;fontStyle=1;fontSize=10;" vertex="1" parent="1">
          <mxGeometry x="715" y="505" width="110" height="20" as="geometry"/>
        </mxCell>

        <!-- GUI Implementation -->
        <mxCell id="task_gui_name" value="GUI Implementation" style="rounded=0;whiteSpace=wrap;html=1;fillColor=#ecf0f1;align=left;fontSize=11;" vertex="1" parent="1">
          <mxGeometry x="40" y="530" width="250" height="30" as="geometry"/>
        </mxCell>
        <mxCell id="task_gui_owner" value="Samantha" style="rounded=0;whiteSpace=wrap;html=1;fillColor=#ffffff;fontSize=10;fontColor=#7f8c8d;" vertex="1" parent="1">
          <mxGeometry x="290" y="530" width="100" height="30" as="geometry"/>
        </mxCell>
        <mxCell id="task_gui_duration" value="3 days" style="rounded=0;whiteSpace=wrap;html=1;fillColor=#ffffff;fontSize=10;" vertex="1" parent="1">
          <mxGeometry x="390" y="530" width="80" height="30" as="geometry"/>
        </mxCell>
        <mxCell id="task_gui_bar" value="tkinter GUI" style="rounded=1;whiteSpace=wrap;html=1;fillColor=#e74c3c;fontColor=#ffffff;fontStyle=1;fontSize=10;" vertex="1" parent="1">
          <mxGeometry x="715" y="535" width="110" height="20" as="geometry"/>
        </mxCell>

        <!-- Unit Testing Iter 1 -->
        <mxCell id="task_unit1_name" value="Unit Testing (Iteration 1)" style="rounded=0;whiteSpace=wrap;html=1;fillColor=#ecf0f1;align=left;fontSize=11;" vertex="1" parent="1">
          <mxGeometry x="40" y="560" width="250" height="30" as="geometry"/>
        </mxCell>
        <mxCell id="task_unit1_owner" value="Chris" style="rounded=0;whiteSpace=wrap;html=1;fillColor=#ffffff;fontSize=10;fontColor=#7f8c8d;" vertex="1" parent="1">
          <mxGeometry x="290" y="560" width="100" height="30" as="geometry"/>
        </mxCell>
        <mxCell id="task_unit1_duration" value="2 days" style="rounded=0;whiteSpace=wrap;html=1;fillColor=#ffffff;fontSize=10;" vertex="1" parent="1">
          <mxGeometry x="390" y="560" width="80" height="30" as="geometry"/>
        </mxCell>
        <mxCell id="task_unit1_bar" value="Unit Tests" style="rounded=1;whiteSpace=wrap;html=1;fillColor=#e74c3c;fontColor=#ffffff;fontStyle=1;fontSize=10;" vertex="1" parent="1">
          <mxGeometry x="715" y="565" width="110" height="20" as="geometry"/>
        </mxCell>

        <!-- Milestone: Iteration 1 Demo -->
        <mxCell id="milestone3_name" value="ðŸ”¶ Milestone: Iteration 1 Demo" style="rounded=0;whiteSpace=wrap;html=1;fillColor=#ecf0f1;align=left;fontSize=11;fontStyle=1;" vertex="1" parent="1">
          <mxGeometry x="40" y="590" width="250" height="30" as="geometry"/>
        </mxCell>
        <mxCell id="milestone3_owner" value="-" style="rounded=0;whiteSpace=wrap;html=1;fillColor=#ffffff;fontSize=10;" vertex="1" parent="1">
          <mxGeometry x="290" y="590" width="100" height="30" as="geometry"/>
        </mxCell>
        <mxCell id="milestone3_duration" value="-" style="rounded=0;whiteSpace=wrap;html=1;fillColor=#ffffff;fontSize=10;" vertex="1" parent="1">
          <mxGeometry x="390" y="590" width="80" height="30" as="geometry"/>
        </mxCell>
        <mxCell id="milestone3_diamond" value="" style="rhombus;whiteSpace=wrap;html=1;fillColor=#f39c12;strokeColor=none;" vertex="1" parent="1">
          <mxGeometry x="755" y="595" width="20" height="20" as="geometry"/>
        </mxCell>

        <!-- PHASE 4: CONSTRUCTION 2 -->
        <mxCell id="phase4" value="1.4 DEVELOPMENT - ITERATION 2 (Enhanced)" style="rounded=0;whiteSpace=wrap;html=1;fillColor=#2c3e50;fontColor=#ffffff;fontStyle=1;fontSize=12;" vertex="1" parent="1">
          <mxGeometry x="40" y="630" width="1150" height="30" as="geometry"/>
        </mxCell>

        <!-- Category Summary -->
        <mxCell id="task_summary_name" value="Category Summary Feature" style="rounded=0;whiteSpace=wrap;html=1;fillColor=#ecf0f1;align=left;fontSize=11;" vertex="1" parent="1">
          <mxGeometry x="40" y="660" width="250" height="30" as="geometry"/>
        </mxCell>
        <mxCell id="task_summary_owner" value="Ragan" style="rounded=0;whiteSpace=wrap;html=1;fillColor=#ffffff;fontSize=10;fontColor=#7f8c8d;" vertex="1" parent="1">
          <mxGeometry x="290" y="660" width="100" height="30" as="geometry"/>
        </mxCell>
        <mxCell id="task_summary_duration" value="2 days" style="rounded=0;whiteSpace=wrap;html=1;fillColor=#ffffff;fontSize=10;" vertex="1" parent="1">
          <mxGeometry x="390" y="660" width="80" height="30" as="geometry"/>
        </mxCell>
        <mxCell id="task_summary_bar" value="Summary" style="rounded=1;whiteSpace=wrap;html=1;fillColor=#e67e22;fontColor=#ffffff;fontStyle=1;fontSize=10;" vertex="1" parent="1">
          <mxGeometry x="835" y="665" width="110" height="20" as="geometry"/>
        </mxCell>

        <!-- Edit/Delete -->
        <mxCell id="task_edit_name" value="Edit/Delete Functionality" style="rounded=0;whiteSpace=wrap;html=1;fillColor=#ecf0f1;align=left;fontSize=11;" vertex="1" parent="1">
          <mxGeometry x="40" y="690" width="250" height="30" as="geometry"/>
        </mxCell>
        <mxCell id="task_edit_owner" value="Samantha" style="rounded=0;whiteSpace=wrap;html=1;fillColor=#ffffff;fontSize=10;fontColor=#7f8c8d;" vertex="1" parent="1">
          <mxGeometry x="290" y="690" width="100" height="30" as="geometry"/>
        </mxCell>
        <mxCell id="task_edit_duration" value="2 days" style="rounded=0;whiteSpace=wrap;html=1;fillColor=#ffffff;fontSize=10;" vertex="1" parent="1">
          <mxGeometry x="390" y="690" width="80" height="30" as="geometry"/>
        </mxCell>
        <mxCell id="task_edit_bar" value="Edit/Delete" style="rounded=1;whiteSpace=wrap;html=1;fillColor=#e67e22;fontColor=#ffffff;fontStyle=1;fontSize=10;" vertex="1" parent="1">
          <mxGeometry x="835" y="695" width="110" height="20" as="geometry"/>
        </mxCell>

        <!-- Visualization -->
        <mxCell id="task_viz_name" value="Visualization (Pie Charts)" style="rounded=0;whiteSpace=wrap;html=1;fillColor=#ecf0f1;align=left;fontSize=11;" vertex="1" parent="1">
          <mxGeometry x="40" y="720" width="250" height="30" as="geometry"/>
        </mxCell>
        <mxCell id="task_viz_owner" value="Brant" style="rounded=0;whiteSpace=wrap;html=1;fillColor=#ffffff;fontSize=10;fontColor=#7f8c8d;" vertex="1" parent="1">
          <mxGeometry x="290" y="720" width="100" height="30" as="geometry"/>
        </mxCell>
        <mxCell id="task_viz_duration" value="2 days" style="rounded=0;whiteSpace=wrap;html=1;fillColor=#ffffff;fontSize=10;" vertex="1" parent="1">
          <mxGeometry x="390" y="720" width="80" height="30" as="geometry"/>
        </mxCell>
        <mxCell id="task_viz_bar" value="Charts" style="rounded=1;whiteSpace=wrap;html=1;fillColor=#e67e22;fontColor=#ffffff;fontStyle=1;fontSize=10;" vertex="1" parent="1">
          <mxGeometry x="835" y="725" width="110" height="20" as="geometry"/>
        </mxCell>

        <!-- Enhanced Validation -->
        <mxCell id="task_valid_name" value="Enhanced Validation" style="rounded=0;whiteSpace=wrap;html=1;fillColor=#ecf0f1;align=left;fontSize=11;" vertex="1" parent="1">
          <mxGeometry x="40" y="750" width="250" height="30" as="geometry"/>
        </mxCell>
        <mxCell id="task_valid_owner" value="Chris" style="rounded=0;whiteSpace=wrap;html=1;fillColor=#ffffff;fontSize=10;fontColor=#7f8c8d;" vertex="1" parent="1">
          <mxGeometry x="290" y="750" width="100" height="30" as="geometry"/>
        </mxCell>
        <mxCell id="task_valid_duration" value="2 days" style="rounded=0;whiteSpace=wrap;html=1;fillColor=#ffffff;fontSize=10;" vertex="1" parent="1">
          <mxGeometry x="390" y="750" width="80" height="30" as="geometry"/>
        </mxCell>
        <mxCell id="task_valid_bar" value="Validation" style="rounded=1;whiteSpace=wrap;html=1;fillColor=#e67e22;fontColor=#ffffff;fontStyle=1;fontSize=10;" vertex="1" parent="1">
          <mxGeometry x="835" y="755" width="110" height="20" as="geometry"/>
        </mxCell>

        <!-- Integration Testing -->
        <mxCell id="task_integ_name" value="Integration Testing" style="rounded=0;whiteSpace=wrap;html=1;fillColor=#ecf0f1;align=left;fontSize=11;" vertex="1" parent="1">
          <mxGeometry x="40" y="780" width="250" height="30" as="geometry"/>
        </mxCell>
        <mxCell id="task_integ_owner" value="All Team" style="rounded=0;whiteSpace=wrap;html=1;fillColor=#ffffff;fontSize=10;fontColor=#7f8c8d;" vertex="1" parent="1">
          <mxGeometry x="290" y="780" width="100" height="30" as="geometry"/>
        </mxCell>
        <mxCell id="task_integ_duration" value="2 days" style="rounded=0;whiteSpace=wrap;html=1;fillColor=#ffffff;fontSize=10;" vertex="1" parent="1">
          <mxGeometry x="390" y="780" width="80" height="30" as="geometry"/>
        </mxCell>
        <mxCell id="task_integ_bar" value="Integration" style="rounded=1;whiteSpace=wrap;html=1;fillColor=#e67e22;fontColor=#ffffff;fontStyle=1;fontSize=10;" vertex="1" parent="1">
          <mxGeometry x="835" y="785" width="110" height="20" as="geometry"/>
        </mxCell>

        <!-- Milestone: Iteration 2 Demo -->
        <mxCell id="milestone4_name" value="ðŸ”¶ Milestone: Iteration 2 Demo" style="rounded=0;whiteSpace=wrap;html=1;fillColor=#ecf0f1;align=left;fontSize=11;fontStyle=1;" vertex="1" parent="1">
          <mxGeometry x="40" y="810" width="250" height="30" as="geometry"/>
        </mxCell>
        <mxCell id="milestone4_owner" value="-" style="rounded=0;whiteSpace=wrap;html=1;fillColor=#ffffff;fontSize=10;" vertex="1" parent="1">
          <mxGeometry x="290" y="810" width="100" height="30" as="geometry"/>
        </mxCell>
        <mxCell id="milestone4_duration" value="-" style="rounded=0;whiteSpace=wrap;html=1;fillColor=#ffffff;fontSize=10;" vertex="1" parent="1">
          <mxGeometry x="390" y="810" width="80" height="30" as="geometry"/>
        </mxCell>
        <mxCell id="milestone4_diamond" value="" style="rhombus;whiteSpace=wrap;html=1;fillColor=#f39c12;strokeColor=none;" vertex="1" parent="1">
          <mxGeometry x="875" y="815" width="20" height="20" as="geometry"/>
        </mxCell>

        <!-- PHASE 5: TESTING -->
        <mxCell id="phase5" value="1.5 TESTING &amp; QUALITY ASSURANCE" style="rounded=0;whiteSpace=wrap;html=1;fillColor=#2c3e50;fontColor=#ffffff;fontStyle=1;fontSize=12;" vertex="1" parent="1">
          <mxGeometry x="40" y="850" width="1150" height="30" as="geometry"/>
        </mxCell>

        <!-- Functional Testing -->
        <mxCell id="task_func_name" value="Functional Testing" style="rounded=0;whiteSpace=wrap;html=1;fillColor=#ecf0f1;align=left;fontSize=11;" vertex="1" parent="1">
          <mxGeometry x="40" y="880" width="250" height="30" as="geometry"/>
        </mxCell>
        <mxCell id="task_func_owner" value="Chris" style="rounded=0;whiteSpace=wrap;html=1;fillColor=#ffffff;fontSize=10;fontColor=#7f8c8d;" vertex="1" parent="1">
          <mxGeometry x="290" y="880" width="100" height="30" as="geometry"/>
        </mxCell>
        <mxCell id="task_func_duration" value="3 days" style="rounded=0;whiteSpace=wrap;html=1;fillColor=#ffffff;fontSize=10;" vertex="1" parent="1">
          <mxGeometry x="390" y="880" width="80" height="30" as="geometry"/>
        </mxCell>
        <mxCell id="task_func_bar" value="Functional" style="rounded=1;whiteSpace=wrap;html=1;fillColor=#27ae60;fontColor=#ffffff;fontStyle=1;fontSize=10;" vertex="1" parent="1">
          <mxGeometry x="955" y="885" width="110" height="20" as="geometry"/>
        </mxCell>

        <!-- UAT -->
        <mxCell id="task_uat_name" value="User Acceptance Testing" style="rounded=0;whiteSpace=wrap;html=1;fillColor=#ecf0f1;align=left;fontSize=11;" vertex="1" parent="1">
          <mxGeometry x="40" y="910" width="250" height="30" as="geometry"/>
        </mxCell>
        <mxCell id="task_uat_owner" value="All Team" style="rounded=0;whiteSpace=wrap;html=1;fillColor=#ffffff;fontSize=10;fontColor=#7f8c8d;" vertex="1" parent="1">
          <mxGeometry x="290" y="910" width="100" height="30" as="geometry"/>
        </mxCell>
        <mxCell id="task_uat_duration" value="2 days" style="rounded=0;whiteSpace=wrap;html=1;fillColor=#ffffff;fontSize=10;" vertex="1" parent="1">
          <mxGeometry x="390" y="910" width="80" height="30" as="geometry"/>
        </mxCell>
        <mxCell id="task_uat_bar" value="UAT" style="rounded=1;whiteSpace=wrap;html=1;fillColor=#27ae60;fontColor=#ffffff;fontStyle=1;fontSize=10;" vertex="1" parent="1">
          <mxGeometry x="955" y="915" width="110" height="20" as="geometry"/>
        </mxCell>

        <!-- Bug Fixes -->
        <mxCell id="task_bugs_name" value="Bug Fixes" style="rounded=0;whiteSpace=wrap;html=1;fillColor=#ecf0f1;align=left;fontSize=11;" vertex="1" parent="1">
          <mxGeometry x="40" y="940" width="250" height="30" as="geometry"/>
        </mxCell>
        <mxCell id="task_bugs_owner" value="Ragan, Brant" style="rounded=0;whiteSpace=wrap;html=1;fillColor=#ffffff;fontSize=10;fontColor=#7f8c8d;" vertex="1" parent="1">
          <mxGeometry x="290" y="940" width="100" height="30" as="geometry"/>
        </mxCell>
        <mxCell id="task_bugs_duration" value="2 days" style="rounded=0;whiteSpace=wrap;html=1;fillColor=#ffffff;fontSize=10;" vertex="1" parent="1">
          <mxGeometry x="390" y="940" width="80" height="30" as="geometry"/>
        </mxCell>
        <mxCell id="task_bugs_bar" value="Fixes" style="rounded=1;whiteSpace=wrap;html=1;fillColor=#27ae60;fontColor=#ffffff;fontStyle=1;fontSize=10;" vertex="1" parent="1">
          <mxGeometry x="955" y="945" width="110" height="20" as="geometry"/>
        </mxCell>

        <!-- User Documentation -->
        <mxCell id="task_doc_name" value="User Documentation" style="rounded=0;whiteSpace=wrap;html=1;fillColor=#ecf0f1;align=left;fontSize=11;" vertex="1" parent="1">
          <mxGeometry x="40" y="970" width="250" height="30" as="geometry"/>
        </mxCell>
        <mxCell id="task_doc_owner" value="Samantha" style="rounded=0;whiteSpace=wrap;html=1;fillColor=#ffffff;fontSize=10;fontColor=#7f8c8d;" vertex="1" parent="1">
          <mxGeometry x="290" y="970" width="100" height="30" as="geometry"/>
        </mxCell>
        <mxCell id="task_doc_duration" value="3 days" style="rounded=0;whiteSpace=wrap;html=1;fillColor=#ffffff;fontSize=10;" vertex="1" parent="1">
          <mxGeometry x="390" y="970" width="80" height="30" as="geometry"/>
        </mxCell>
        <mxCell id="task_doc_bar" value="User Guide" style="rounded=1;whiteSpace=wrap;html=1;fillColor=#27ae60;fontColor=#ffffff;fontStyle=1;fontSize=10;" vertex="1" parent="1">
          <mxGeometry x="955" y="975" width="110" height="20" as="geometry"/>
        </mxCell>

        <!-- Installation Guide -->
        <mxCell id="task_install_name" value="Installation Guide" style="rounded=0;whiteSpace=wrap;html=1;fillColor=#ecf0f1;align=left;fontSize=11;" vertex="1" parent="1">
          <mxGeometry x="40" y="1000" width="250" height="30" as="geometry"/>
        </mxCell>
        <mxCell id="task_install_owner" value="Chris" style="rounded=0;whiteSpace=wrap;html=1;fillColor=#ffffff;fontSize=10;fontColor=#7f8c8d;" vertex="1" parent="1">
          <mxGeometry x="290" y="1000" width="100" height="30" as="geometry"/>
        </mxCell>
        <mxCell id="task_install_duration" value="1 day" style="rounded=0;whiteSpace=wrap;html=1;fillColor=#ffffff;fontSize=10;" vertex="1" parent="1">
          <mxGeometry x="390" y="1000" width="80" height="30" as="geometry"/>
        </mxCell>
        <mxCell id="task_install_bar" value="Install" style="rounded=1;whiteSpace=wrap;html=1;fillColor=#27ae60;fontColor=#ffffff;fontStyle=1;fontSize=10;" vertex="1" parent="1">
          <mxGeometry x="955" y="1005" width="110" height="20" as="geometry"/>
        </mxCell>

        <!-- Milestone: UAT Complete -->
        <mxCell id="milestone5_name" value="ðŸ”¶ Milestone: UAT Complete" style="rounded=0;whiteSpace=wrap;html=1;fillColor=#ecf0f1;align=left;fontSize=11;fontStyle=1;" vertex="1" parent="1">
          <mxGeometry x="40" y="1030" width="250" height="30" as="geometry"/>
        </mxCell>
        <mxCell id="milestone5_owner" value="-" style="rounded=0;whiteSpace=wrap;html=1;fillColor=#ffffff;fontSize=10;" vertex="1" parent="1">
          <mxGeometry x="290" y="1030" width="100" height="30" as="geometry"/>
        </mxCell>
        <mxCell id="milestone5_duration" value="-" style="rounded=0;whiteSpace=wrap;html=1;fillColor=#ffffff;fontSize=10;" vertex="1" parent="1">
          <mxGeometry x="390" y="1030" width="80" height="30" as="geometry"/>
        </mxCell>
        <mxCell id="milestone5_diamond" value="" style="rhombus;whiteSpace=wrap;html=1;fillColor=#f39c12;strokeColor=none;" vertex="1" parent="1">
          <mxGeometry x="995" y="1035" width="20" height="20" as="geometry"/>
        </mxCell>

        <!-- PHASE 6: CLOSE-OUT -->
        <mxCell id="phase6" value="1.6 DEPLOYMENT &amp; CLOSE-OUT" style="rounded=0;whiteSpace=wrap;html=1;fillColor=#2c3e50;fontColor=#ffffff;fontStyle=1;fontSize=12;" vertex="1" parent="1">
          <mxGeometry x="40" y="1070" width="1150" height="30" as="geometry"/>
        </mxCell>

        <!-- Demo Preparation -->
        <mxCell id="task_demo_name" value="Demo Preparation" style="rounded=0;whiteSpace=wrap;html=1;fillColor=#ecf0f1;align=left;fontSize=11;" vertex="1" parent="1">
          <mxGeometry x="40" y="1100" width="250" height="30" as="geometry"/>
        </mxCell>
        <mxCell id="task_demo_owner" value="All Team" style="rounded=0;whiteSpace=wrap;html=1;fillColor=#ffffff;fontSize=10;fontColor=#7f8c8d;" vertex="1" parent="1">
          <mxGeometry x="290" y="1100" width="100" height="30" as="geometry"/>
        </mxCell>
        <mxCell id="task_demo_duration" value="2 days" style="rounded=0;whiteSpace=wrap;html=1;fillColor=#ffffff;fontSize=10;" vertex="1" parent="1">
          <mxGeometry x="390" y="1100" width="80" height="30" as="geometry"/>
        </mxCell>
        <mxCell id="task_demo_bar" value="Demo Prep" style="rounded=1;whiteSpace=wrap;html=1;fillColor=#95a5a6;fontColor=#ffffff;fontStyle=1;fontSize=10;" vertex="1" parent="1">
          <mxGeometry x="1075" y="1105" width="110" height="20" as="geometry"/>
        </mxCell>

        <!-- Retrospective -->
        <mxCell id="task_retro_name" value="Project Retrospective" style="rounded=0;whiteSpace=wrap;html=1;fillColor=#ecf0f1;align=left;fontSize=11;" vertex="1" parent="1">
          <mxGeometry x="40" y="1130" width="250" height="30" as="geometry"/>
        </mxCell>
        <mxCell id="task_retro_owner" value="All Team" style="rounded=0;whiteSpace=wrap;html=1;fillColor=#ffffff;fontSize=10;fontColor=#7f8c8d;" vertex="1" parent="1">
          <mxGeometry x="290" y="1130" width="100" height="30" as="geometry"/>
        </mxCell>
        <mxCell id="task_retro_duration" value="1 day" style="rounded=0;whiteSpace=wrap;html=1;fillColor=#ffffff;fontSize=10;" vertex="1" parent="1">
          <mxGeometry x="390" y="1130" width="80" height="30" as="geometry"/>
        </mxCell>
        <mxCell id="task_retro_bar" value="Retro" style="rounded=1;whiteSpace=wrap;html=1;fillColor=#95a5a6;fontColor=#ffffff;fontStyle=1;fontSize=10;" vertex="1" parent="1">
          <mxGeometry x="1075" y="1135" width="110" height="20" as="geometry"/>
        </mxCell>

        <!-- Milestone: Final Delivery -->
        <mxCell id="milestone6_name" value="ðŸ”¶ Milestone: Final Delivery" style="rounded=0;whiteSpace=wrap;html=1;fillColor=#ecf0f1;align=left;fontSize=11;fontStyle=1;" vertex="1" parent="1">
          <mxGeometry x="40" y="1160" width="250" height="30" as="geometry"/>
        </mxCell>
        <mxCell id="milestone6_owner" value="-" style="rounded=0;whiteSpace=wrap;html=1;fillColor=#ffffff;fontSize=10;" vertex="1" parent="1">
          <mxGeometry x="290" y="1160" width="100" height="30" as="geometry"/>
        </mxCell>
        <mxCell id="milestone6_duration" value="-" style="rounded=0;whiteSpace=wrap;html=1;fillColor=#ffffff;fontSize=10;" vertex="1" parent="1">
          <mxGeometry x="390" y="1160" width="80" height="30" as="geometry"/>
        </mxCell>
        <mxCell id="milestone6_diamond" value="" style="rhombus;whiteSpace=wrap;html=1;fillColor=#f39c12;strokeColor=none;" vertex="1" parent="1">
          <mxGeometry x="1115" y="1165" width="20" height="20" as="geometry"/>
        </mxCell>

        <!-- Legend -->
        <mxCell id="legend_title" value="Legend:" style="text;html=1;strokeColor=none;fillColor=none;align=left;verticalAlign=middle;whiteSpace=wrap;rounded=0;fontSize=14;fontStyle=1" vertex="1" parent="1">
          <mxGeometry x="40" y="1210" width="100" height="30" as="geometry"/>
        </mxCell>

        <mxCell id="legend_planning" value="" style="rounded=1;whiteSpace=wrap;html=1;fillColor=#9b59b6;" vertex="1" parent="1">
          <mxGeometry x="150" y="1215" width="40" height="20" as="geometry"/>
        </mxCell>
        <mxCell id="legend_planning_text" value="Planning" style="text;html=1;strokeColor=none;fillColor=none;align=left;verticalAlign=middle;whiteSpace=wrap;rounded=0;fontSize=11" vertex="1" parent="1">
          <mxGeometry x="195" y="1210" width="80" height="30" as="geometry"/>
        </mxCell>

        <mxCell id="legend_design" value="" style="rounded=1;whiteSpace=wrap;html=1;fillColor=#3498db;" vertex="1" parent="1">
          <mxGeometry x="275" y="1215" width="40" height="20" as="geometry"/>
        </mxCell>
        <mxCell id="legend_design_text" value="Design" style="text;html=1;strokeColor=none;fillColor=none;align=left;verticalAlign=middle;whiteSpace=wrap;rounded=0;fontSize=11" vertex="1" parent="1">
          <mxGeometry x="320" y="1210" width="80" height="30" as="geometry"/>
        </mxCell>

        <mxCell id="legend_const1" value="" style="rounded=1;whiteSpace=wrap;html=1;fillColor=#e74c3c;" vertex="1" parent="1">
          <mxGeometry x="400" y="1215" width="40" height="20" as="geometry"/>
        </mxCell>
        <mxCell id="legend_const1_text" value="Construction 1" style="text;html=1;strokeColor=none;fillColor=none;align=left;verticalAlign=middle;whiteSpace=wrap;rounded=0;fontSize=11" vertex="1" parent="1">
          <mxGeometry x="445" y="1210" width="120" height="30" as="geometry"/>
        </mxCell>

        <mxCell id="legend_const2" value="" style="rounded=1;whiteSpace=wrap;html=1;fillColor=#e67e22;" vertex="1" parent="1">
          <mxGeometry x="565" y="1215" width="40" height="20" as="geometry"/>
        </mxCell>
        <mxCell id="legend_const2_text" value="Construction 2" style="text;html=1;strokeColor=none;fillColor=none;align=left;verticalAlign=middle;whiteSpace=wrap;rounded=0;fontSize=11" vertex="1" parent="1">
          <mxGeometry x="610" y="1210" width="120" height="30" as="geometry"/>
        </mxCell>

        <mxCell id="legend_testing" value="" style="rounded=1;whiteSpace=wrap;html=1;fillColor=#27ae60;" vertex="1" parent="1">
          <mxGeometry x="730" y="1215" width="40" height="20" as="geometry"/>
        </mxCell>
        <mxCell id="legend_testing_text" value="Testing" style="text;html=1;strokeColor=none;fillColor=none;align=left;verticalAlign=middle;whiteSpace=wrap;rounded=0;fontSize=11" vertex="1" parent="1">
          <mxGeometry x="775" y="1210" width="80" height="30" as="geometry"/>
        </mxCell>

        <mxCell id="legend_closeout" value="" style="rounded=1;whiteSpace=wrap;html=1;fillColor=#95a5a6;" vertex="1" parent="1">
          <mxGeometry x="855" y="1215" width="40" height="20" as="geometry"/>
        </mxCell>
        <mxCell id="legend_closeout_text" value="Close-out" style="text;html=1;strokeColor=none;fillColor=none;align=left;verticalAlign=middle;whiteSpace=wrap;rounded=0;fontSize=11" vertex="1" parent="1">
          <mxGeometry x="900" y="1210" width="80" height="30" as="geometry"/>
        </mxCell>

        <mxCell id="legend_milestone" value="" style="rhombus;whiteSpace=wrap;html=1;fillColor=#f39c12;strokeColor=none;" vertex="1" parent="1">
          <mxGeometry x="990" y="1215" width="20" height="20" as="geometry"/>
        </mxCell>
        <mxCell id="legend_milestone_text" value="Milestone" style="text;html=1;strokeColor=none;fillColor=none;align=left;verticalAlign=middle;whiteSpace=wrap;rounded=0;fontSize=11" vertex="1" parent="1">
          <mxGeometry x="1015" y="1210" width="80" height="30" as="geometry"/>
        </mxCell>

      </root>
    </mxGraphModel>
  </diagram>
</mxfile>